<?xml version="1.0" encoding="UTF-8"?>
<svg version="1.1" xmlns="http://www.w3.org/2000/svg" width="512" height="512">
<path d="M0 0 C2.43966984 0.00314734 4.87810692 -0.02034756 7.31762695 -0.0456543 C21.67972491 -0.10379385 35.59508976 1.84182603 49.46020508 5.62817383 C50.24435791 5.83982178 51.02851074 6.05146973 51.83642578 6.26953125 C76.66147374 13.19715858 99.64818425 26.16171129 118.77270508 43.31567383 C120.0972168 44.45842773 120.0972168 44.45842773 121.44848633 45.62426758 C153.62169077 73.69451283 174.81162909 116.05052217 177.94911647 158.71454215 C178.21543933 164.59223674 178.19271555 170.47111096 178.17675781 176.35351562 C178.18247765 178.289275 178.18944806 180.22503101 178.19755554 182.16078186 C178.21532744 187.36362331 178.21434855 192.56629463 178.20861316 197.76915717 C178.20549687 202.13959682 178.21164086 206.51000493 178.2176519 210.88044006 C178.23164421 221.20677902 178.23018119 231.53303516 178.21875 241.859375 C178.20728415 252.4498748 178.22133096 263.0401209 178.24814647 273.63058728 C178.27042934 282.77944725 178.27691242 291.92822832 178.27107006 301.07711345 C178.26772798 306.51642839 178.26992933 311.955581 178.28732109 317.39487267 C178.41399903 361.16903086 178.41399903 361.16903086 173.77270508 379.31567383 C173.58313673 380.08609701 173.39356838 380.8565202 173.19825554 381.65028954 C162.10105107 426.33874925 131.78562483 465.21647658 92.58129883 488.88989258 C78.89862989 496.88847529 64.45737228 503.00824358 49.14770508 507.12817383 C48.46973877 507.310979 47.79177246 507.49378418 47.09326172 507.68212891 C32.50447158 511.33396933 18.09656755 512.87006426 3.08520508 512.75317383 C2.26186676 512.75046478 1.43852844 512.74775574 0.59024048 512.7449646 C-13.00511335 512.67743882 -25.99576922 511.62561026 -39.22729492 508.31567383 C-39.97060059 508.13907227 -40.71390625 507.9624707 -41.47973633 507.78051758 C-86.25991776 496.91496019 -124.93975507 466.20704964 -148.76635742 427.22973633 C-159.37880159 409.24879079 -166.33292995 389.79265312 -170.22729492 369.31567383 C-170.39964472 368.44022604 -170.57199451 367.56477825 -170.74956703 366.66280174 C-172.50802424 356.70684359 -172.52409831 346.91790925 -172.51782227 336.84545898 C-172.52381839 334.91043848 -172.5306264 332.97542034 -172.53817749 331.04040527 C-172.5557403 325.81664391 -172.56052891 320.59294821 -172.56180906 315.36916018 C-172.56323743 312.09325142 -172.56752006 308.81735899 -172.5728035 305.54145432 C-172.59127586 294.07734888 -172.59947814 282.61328975 -172.59790039 271.14916992 C-172.59670169 260.52186258 -172.61775802 249.8947592 -172.64938772 239.26750338 C-172.67569155 230.09752133 -172.68626173 220.92760529 -172.68498957 211.75758588 C-172.68448381 206.30141789 -172.68994985 200.84543116 -172.71134567 195.3893013 C-172.87149866 151.51528904 -172.87149866 151.51528904 -168.22729492 133.31567383 C-168.04235851 132.55482609 -167.8574221 131.79397835 -167.66688156 131.01007462 C-156.95268987 87.18001541 -127.4496796 48.96025394 -89.40307617 25.26489258 C-70.64731853 13.94790782 -50.75320818 6.35544911 -29.22729492 2.31567383 C-28.28684326 2.13093506 -27.3463916 1.94619629 -26.37744141 1.75585938 C-17.56986459 0.19415355 -8.91651782 -0.02393339 0 0 Z M-57.51245117 115.44067383 C-70.76212895 129.47198727 -79.23067944 146.48234603 -81.31658936 165.69824219 C-81.40225403 166.48483436 -81.4879187 167.27142653 -81.57617927 168.08185482 C-82.38642337 176.0444643 -82.50995157 183.94792169 -82.48608398 191.94458008 C-82.48880495 193.51407024 -82.49237199 195.08355912 -82.4967041 196.65304565 C-82.50569916 200.85556644 -82.50233803 205.05798731 -82.49594593 209.26050949 C-82.49081818 213.69629907 -82.49559593 218.13208111 -82.49871826 222.56787109 C-82.50233843 230.01148995 -82.49761037 237.45506888 -82.48803711 244.89868164 C-82.47715635 253.45678056 -82.48068332 262.01478413 -82.49168992 270.57288074 C-82.50081874 277.9721981 -82.50202093 285.37148705 -82.49681258 292.77080822 C-82.49372342 297.16754401 -82.49319806 301.56423524 -82.49988556 305.96096802 C-82.50574061 310.09801739 -82.50151613 314.234946 -82.49009705 318.37198257 C-82.48749342 319.87378872 -82.48813996 321.37560536 -82.49262238 322.87740707 C-82.52983013 336.63092281 -82.38936393 351.45189613 -77.66479492 364.50317383 C-77.40722412 365.23745605 -77.14965332 365.97173828 -76.88427734 366.72827148 C-68.74478214 388.74552287 -52.34628899 405.19958029 -31.20385742 415.07348633 C-8.53844027 424.53228246 14.10708445 423.88513107 36.96020508 415.06567383 C58.86576406 405.40491122 74.32241875 387.28676717 82.95239258 365.31176758 C85.03189583 359.24781467 86.18054961 353.27148927 86.86590576 346.92529297 C86.95128845 346.13926476 87.03667114 345.35323656 87.12464118 344.54338932 C87.93242538 336.58309085 88.05535422 328.68091165 88.03149414 320.68676758 C88.03421511 319.11727742 88.03778215 317.54778854 88.04211426 315.978302 C88.05110931 311.77578121 88.04774819 307.57336035 88.04135609 303.37083817 C88.03622833 298.93504859 88.04100608 294.49926654 88.04412842 290.06347656 C88.04774859 282.61985771 88.04302052 275.17627878 88.03344727 267.73266602 C88.02256651 259.17456709 88.02609348 250.61656353 88.03710008 242.05846691 C88.0462289 234.65914956 88.04743109 227.25986061 88.04222274 219.86053944 C88.03913357 215.46380365 88.03860822 211.06711241 88.04529572 206.67037964 C88.05115077 202.53333026 88.04692628 198.39640166 88.0355072 194.25936508 C88.03290357 192.75755894 88.03355011 191.2557423 88.03803253 189.75394058 C88.07524028 176.00042485 87.93477408 161.17945152 83.21020508 148.12817383 C82.95263428 147.3938916 82.69506348 146.65960938 82.4296875 145.90307617 C74.35635624 124.06479756 58.24573689 107.73222169 37.26489258 97.81567383 C4.94485872 83.93324318 -32.44612525 90.63514372 -57.51245117 115.44067383 Z " fill="#000000" transform="translate(253.227294921875,-0.315673828125)"/>
</svg>
